<svg xmlns="http://www.w3.org/2000/svg" width="1024" height="1440" viewBox="0 0 1024 1440">
<defs>
  <linearGradient id="navyBody" x1="0" y1="0" x2="1" y2="1"><stop offset="0" stop-color="#0B477A"/><stop offset=".22" stop-color="#0F6EA1"/><stop offset=".47" stop-color="#123D70"/><stop offset=".78" stop-color="#071D43"/><stop offset="1" stop-color="#031128"/></linearGradient>
  <linearGradient id="navyPanel" x1="0" y1="0" x2="0" y2="1"><stop offset="0" stop-color="#1F79A5"/><stop offset=".18" stop-color="#144F7E"/><stop offset=".62" stop-color="#0B2B59"/><stop offset="1" stop-color="#04162E"/></linearGradient>
  <linearGradient id="gold" x1="0" y1="0" x2="1" y2="1"><stop offset="0" stop-color="#FFF2A3"/><stop offset=".18" stop-color="#FFD15B"/><stop offset=".42" stop-color="#F6A900"/><stop offset=".7" stop-color="#C87800"/><stop offset=".86" stop-color="#FFE17B"/><stop offset="1" stop-color="#8F4B00"/></linearGradient>
  <linearGradient id="chrome" x1="0" y1="0" x2="0" y2="1"><stop offset="0" stop-color="#FFFFFF"/><stop offset=".15" stop-color="#9AA9B8"/><stop offset=".35" stop-color="#344456"/><stop offset=".55" stop-color="#D7E0E7"/><stop offset=".72" stop-color="#4D5B68"/><stop offset="1" stop-color="#101720"/></linearGradient>
  <linearGradient id="glass" x1="0" y1="0" x2="1" y2="1"><stop offset="0" stop-color="#9BB7B7"/><stop offset=".3" stop-color="#5D797C"/><stop offset=".65" stop-color="#283D43"/><stop offset="1" stop-color="#102026"/></linearGradient>
  <radialGradient id="lamp" cx=".5" cy=".45" r=".55"><stop offset="0" stop-color="#FFFCD4"/><stop offset=".22" stop-color="#FFE468"/><stop offset=".48" stop-color="#FFB300"/><stop offset=".78" stop-color="#D97000"/><stop offset="1" stop-color="#5B2600"/></radialGradient>
  <radialGradient id="spot" cx=".45" cy=".38" r=".6"><stop offset="0" stop-color="#F5FFFF"/><stop offset=".18" stop-color="#8DE5FF"/><stop offset=".48" stop-color="#294E59"/><stop offset=".82" stop-color="#0D1B23"/><stop offset="1" stop-color="#02080C"/></radialGradient>
  <pattern id="mesh" width="22" height="18" patternUnits="userSpaceOnUse"><rect width="22" height="18" fill="#12171A"/><path d="M0 4H22M0 13H22M5 0V18M16 0V18" stroke="#7D8588" stroke-width="1" opacity=".75"/></pattern>
  <filter id="goldGlow" x="-80%" y="-80%" width="260%" height="260%"><feGaussianBlur stdDeviation="10" result="b"/><feColorMatrix in="b" type="matrix" values="1 0 0 0 .95  0 1 0 0 .48  0 0 1 0 .02  0 0 0 .8 0"/><feMerge><feMergeNode/><feMergeNode in="SourceGraphic"/></feMerge></filter>
  <filter id="softShadow" x="-40%" y="-40%" width="180%" height="180%"><feGaussianBlur in="SourceAlpha" stdDeviation="18" result="blur"/><feOffset dy="20" result="off"/><feColorMatrix in="off" type="matrix" values="0 0 0 0 0 0 0 0 0 0 0 0 0 0 .05 0 0 0 .65 0"/><feMerge><feMergeNode/><feMergeNode in="SourceGraphic"/></feMerge></filter>
</defs>
<g id="premiumTruck" filter="url(#softShadow)">
  <ellipse cx="512" cy="1307" rx="360" ry="56" fill="#F5A400" opacity=".18" filter="url(#goldGlow)"/>
  <g fill="#05070A" stroke="#1D2730" stroke-width="12"><path d="M128 1010 Q72 1048 64 1175 L73 1315 Q84 1366 151 1366 L202 1366 214 1068Z"/><path d="M896 1010 Q952 1048 960 1175 L951 1315 Q940 1366 873 1366 L822 1366 810 1068Z"/></g>
  <g stroke="#4B5054" stroke-width="5" opacity=".7"><path d="M93 1110L92 1326M125 1090L124 1347M156 1081L155 1357M868 1081L869 1357M899 1090L900 1347M931 1110L932 1326"/></g>
  <rect x="112" y="176" width="800" height="1030" rx="72" fill="url(#navyBody)" stroke="#172C46" stroke-width="14"/><path d="M128 405 Q512 365 896 405" fill="none" stroke="#49B7E8" stroke-width="9" opacity=".8"/><path d="M134 430 Q512 394 890 430" fill="none" stroke="#07162B" stroke-width="18" opacity=".6"/>
  <path d="M141 183 Q512 138 883 183 L874 242 Q512 211 150 242Z" fill="url(#chrome)" stroke="#102236" stroke-width="10"/><path d="M147 191 Q512 151 877 191 L867 218 Q512 191 157 218Z" fill="url(#gold)" stroke="#FFD65A" stroke-width="4"/><path d="M164 213 Q512 190 860 213" fill="none" stroke="#FFF5BA" stroke-width="5" opacity=".7"/>
  <g filter="url(#goldGlow)"><circle cx="309" cy="155" r="58" fill="#08141D" stroke="url(#gold)" stroke-width="11"/><circle cx="715" cy="155" r="58" fill="#08141D" stroke="url(#gold)" stroke-width="11"/><circle cx="309" cy="155" r="43" fill="url(#spot)" stroke="#7EDCFF" stroke-width="4"/><circle cx="715" cy="155" r="43" fill="url(#spot)" stroke="#7EDCFF" stroke-width="4"/><circle cx="297" cy="142" r="12" fill="#D9FFFF" opacity=".88"/><circle cx="703" cy="142" r="12" fill="#D9FFFF" opacity=".88"/></g>
  <g fill="url(#lamp)" stroke="#FFE574" stroke-width="5" filter="url(#goldGlow)"><circle cx="205" cy="219" r="28"/><circle cx="374" cy="205" r="27"/><circle cx="512" cy="200" r="29"/><circle cx="650" cy="205" r="27"/><circle cx="819" cy="219" r="28"/></g>
  <g><path d="M117 348H55Q31 351 31 380V561Q31 588 59 588H118Z" fill="url(#chrome)" stroke="url(#gold)" stroke-width="11"/><rect x="50" y="372" width="52" height="188" rx="17" fill="#0C2637" stroke="#D98C12" stroke-width="5"/><path d="M907 348H969Q993 351 993 380V561Q993 588 965 588H906Z" fill="url(#chrome)" stroke="url(#gold)" stroke-width="11"/><rect x="922" y="372" width="52" height="188" rx="17" fill="#0C2637" stroke="#D98C12" stroke-width="5"/></g>
  <rect x="151" y="276" width="722" height="315" rx="38" fill="#15191C" stroke="url(#gold)" stroke-width="18"/><path d="M173 305H493V551H173Q162 551 162 538V320Q162 305 173 305Z" fill="url(#glass)" stroke="#0A1420" stroke-width="7"/><path d="M531 305H851Q862 305 862 320V538Q862 551 851 551H531Z" fill="url(#glass)" stroke="#0A1420" stroke-width="7"/><rect x="495" y="285" width="34" height="286" rx="12" fill="url(#gold)"/><path d="M182 321 Q330 300 484 321" fill="none" stroke="#D8FFFF" stroke-width="8" opacity=".25"/><path d="M540 321 Q690 300 844 321" fill="none" stroke="#D8FFFF" stroke-width="8" opacity=".25"/>
  <g stroke="#151A1E" stroke-width="13" stroke-linecap="round"><path d="M257 520L426 560"/><path d="M767 520L598 560"/></g><g stroke="#D7C8A0" stroke-width="3" opacity=".65"><path d="M257 516L426 556"/><path d="M767 516L598 556"/></g>
  <path d="M127 603 Q512 570 897 603 L889 969 Q512 1000 135 969Z" fill="url(#navyPanel)" stroke="#10233F" stroke-width="11"/><path d="M144 637 Q512 605 880 637" fill="none" stroke="#2B82B1" stroke-width="8"/><path d="M153 678H871" stroke="#05172C" stroke-width="15" opacity=".7"/>
  <path d="M308 640 Q512 602 716 640 L754 701V972L700 1010H324L270 972V701Z" fill="#08203D" stroke="url(#gold)" stroke-width="24"/><path d="M332 687H692Q714 687 714 711V941Q714 965 692 965H332Q310 965 310 941V711Q310 687 332 687Z" fill="url(#mesh)" stroke="#DF9414" stroke-width="12"/><g stroke="#D98A06" stroke-width="12"><path d="M325 753H699"/><path d="M325 816H699"/><path d="M325 879H699"/></g><g stroke="#FFD45A" stroke-width="3" opacity=".75"><path d="M325 748H699"/><path d="M325 811H699"/><path d="M325 874H699"/></g>
  <g><path d="M145 690H272L250 926H153Z" fill="#0A3765" stroke="#1B6F9C" stroke-width="10"/><path d="M879 690H752L774 926H871Z" fill="#0A3765" stroke="#1B6F9C" stroke-width="10"/><path d="M158 720H257M154 792H251M150 864H245" stroke="#59B5DD" stroke-width="5" opacity=".7"/><path d="M866 720H767M870 792H773M874 864H779" stroke="#59B5DD" stroke-width="5" opacity=".7"/></g>
  <g filter="url(#goldGlow)"><rect x="151" y="905" width="157" height="95" rx="31" fill="#3B2912" stroke="url(#gold)" stroke-width="10"/><circle cx="199" cy="953" r="35" fill="url(#lamp)" stroke="#FFF0A0" stroke-width="5"/><circle cx="262" cy="953" r="31" fill="url(#lamp)" stroke="#CC7F00" stroke-width="4"/><rect x="716" y="905" width="157" height="95" rx="31" fill="#3B2912" stroke="url(#gold)" stroke-width="10"/><circle cx="825" cy="953" r="35" fill="url(#lamp)" stroke="#FFF0A0" stroke-width="5"/><circle cx="762" cy="953" r="31" fill="url(#lamp)" stroke="#CC7F00" stroke-width="4"/></g>
  <path d="M125 1020H899L876 1196Q512 1245 148 1196Z" fill="url(#chrome)" stroke="#10151A" stroke-width="12"/><path d="M138 1038H886" stroke="#FFE178" stroke-width="8" opacity=".75"/><path d="M179 1123H845" stroke="#593000" stroke-width="7" opacity=".5"/><rect x="377" y="1083" width="270" height="93" rx="25" fill="#15181B" stroke="url(#gold)" stroke-width="11"/><path d="M424 1096V1160M600 1096V1160" stroke="#D8E0E5" stroke-width="20" stroke-linecap="round"/><path d="M424 1096V1160M600 1096V1160" stroke="#8B5B17" stroke-width="7" stroke-linecap="round"/><path d="M424 1098Q512 1053 600 1098" fill="none" stroke="#C7D2D9" stroke-width="13"/><path d="M424 1098Q512 1053 600 1098" fill="none" stroke="#8F5D17" stroke-width="4"/>
  <g filter="url(#goldGlow)"><rect x="184" y="1132" width="125" height="35" rx="16" fill="url(#lamp)" stroke="#FFDB56" stroke-width="4"/><rect x="715" y="1132" width="125" height="35" rx="16" fill="url(#lamp)" stroke="#FFDB56" stroke-width="4"/></g>
  <path d="M255 1204L332 1297H692L769 1204 697 1220 654 1270H370L327 1220Z" fill="#0B1722" stroke="url(#gold)" stroke-width="11"/><path d="M361 1266H663" stroke="#8C5C1B" stroke-width="8"/>
  <path d="M132 330Q512 248 892 330" fill="none" stroke="#88D8F5" stroke-width="5" opacity=".35"/><path d="M139 615Q512 587 885 615" fill="none" stroke="#FFDD72" stroke-width="4" opacity=".4"/><path d="M181 1080H843" stroke="#F7FBFF" stroke-width="5" opacity=".35"/>
</g>
</svg>