# CARGO V2 project-original mission cargo/depot pack
mtllib MOD_Mission_CargoDepot.mtl

o CargoCrate
usemtl CargoGold
v -0.60 0.00 -0.45
v 0.60 0.00 -0.45
v 0.60 0.90 -0.45
v -0.60 0.90 -0.45
v -0.60 0.00 0.45
v 0.60 0.00 0.45
v 0.60 0.90 0.45
v -0.60 0.90 0.45
f 1 2 3 4
f 5 8 7 6
f 1 5 6 2
f 2 6 7 3
f 3 7 8 4
f 5 1 4 8

o CargoCrateBand
usemtl ChromeTrim
v -0.64 0.36 -0.49
v 0.64 0.36 -0.49
v 0.64 0.54 -0.49
v -0.64 0.54 -0.49
v -0.64 0.36 0.49
v 0.64 0.36 0.49
v 0.64 0.54 0.49
v -0.64 0.54 0.49
f 9 10 11 12
f 13 16 15 14
f 9 13 14 10
f 10 14 15 11
f 11 15 16 12
f 13 9 12 16

o DepotPallet
usemtl NavyBody
v -1.20 -0.14 -0.85
v 1.20 -0.14 -0.85
v 1.20 0.00 -0.85
v -1.20 0.00 -0.85
v -1.20 -0.14 0.85
v 1.20 -0.14 0.85
v 1.20 0.00 0.85
v -1.20 0.00 0.85
f 17 18 19 20
f 21 24 23 22
f 17 21 22 18
f 18 22 23 19
f 19 23 24 20
f 21 17 20 24

o RouteGateLeft
usemtl NavyBody
v -2.20 0.00 -0.18
v -1.90 0.00 -0.18
v -1.90 2.80 -0.18
v -2.20 2.80 -0.18
v -2.20 0.00 0.18
v -1.90 0.00 0.18
v -1.90 2.80 0.18
v -2.20 2.80 0.18
f 25 26 27 28
f 29 32 31 30
f 25 29 30 26
f 26 30 31 27
f 27 31 32 28
f 29 25 28 32

o RouteGateRight
usemtl NavyBody
v 1.90 0.00 -0.18
v 2.20 0.00 -0.18
v 2.20 2.80 -0.18
v 1.90 2.80 -0.18
v 1.90 0.00 0.18
v 2.20 0.00 0.18
v 2.20 2.80 0.18
v 1.90 2.80 0.18
f 33 34 35 36
f 37 40 39 38
f 33 37 38 34
f 34 38 39 35
f 35 39 40 36
f 37 33 36 40

o RouteGateTop
usemtl CargoGold
v -2.20 2.50 -0.20
v 2.20 2.50 -0.20
v 2.20 2.90 -0.20
v -2.20 2.90 -0.20
v -2.20 2.50 0.20
v 2.20 2.50 0.20
v 2.20 2.90 0.20
v -2.20 2.90 0.20
f 41 42 43 44
f 45 48 47 46
f 41 45 46 42
f 42 46 47 43
f 43 47 48 44
f 45 41 44 48

o CheckpointBeacon
usemtl BeaconEmissive
v -0.22 2.90 -0.22
v 0.22 2.90 -0.22
v 0.22 3.38 -0.22
v -0.22 3.38 -0.22
v -0.22 2.90 0.22
v 0.22 2.90 0.22
v 0.22 3.38 0.22
v -0.22 3.38 0.22
f 49 50 51 52
f 53 56 55 54
f 49 53 54 50
f 50 54 55 51
f 51 55 56 52
f 53 49 52 56
