# CARGO V2 premium stylized truck
mtllib MOD_Truck_Premium.mtl
s off
o Cab
v -1.2000 0.0000 0.0000
v 1.2000 0.0000 0.0000
v 1.2000 2.4000 0.0000
v -1.2000 2.4000 0.0000
v -1.2000 0.0000 2.0000
v 1.2000 0.0000 2.0000
v 1.2000 2.4000 2.0000
v -1.2000 2.4000 2.0000
usemtl navy
f 1 2 3 4
f 5 8 7 6
f 1 5 6 2
f 2 6 7 3
f 3 7 8 4
f 5 1 4 8
o CabRoof
v -1.2750 2.3750 -0.0500
v 1.2750 2.3750 -0.0500
v 1.2750 2.7250 -0.0500
v -1.2750 2.7250 -0.0500
v -1.2750 2.3750 2.0500
v 1.2750 2.3750 2.0500
v 1.2750 2.7250 2.0500
v -1.2750 2.7250 2.0500
usemtl gold
f 9 10 11 12
f 13 16 15 14
f 9 13 14 10
f 10 14 15 11
f 11 15 16 12
f 13 9 12 16
o Windshield
v -0.9000 1.6250 -0.0400
v 0.9000 1.6250 -0.0400
v 0.9000 2.2750 -0.0400
v -0.9000 2.2750 -0.0400
v -0.9000 1.6250 0.0400
v 0.9000 1.6250 0.0400
v 0.9000 2.2750 0.0400
v -0.9000 2.2750 0.0400
usemtl glass
f 17 18 19 20
f 21 24 23 22
f 17 21 22 18
f 18 22 23 19
f 19 23 24 20
f 21 17 20 24
o Grille
v -0.7250 0.4750 -0.1000
v 0.7250 0.4750 -0.1000
v 0.7250 1.2250 -0.1000
v -0.7250 1.2250 -0.1000
v -0.7250 0.4750 0.0000
v 0.7250 0.4750 0.0000
v 0.7250 1.2250 0.0000
v -0.7250 1.2250 0.0000
usemtl chrome
f 25 26 27 28
f 29 32 31 30
f 25 29 30 26
f 26 30 31 27
f 27 31 32 28
f 29 25 28 32
o Bumper
v -1.3000 0.2000 -0.1500
v 1.3000 0.2000 -0.1500
v 1.3000 0.5000 -0.1500
v -1.3000 0.5000 -0.1500
v -1.3000 0.2000 0.0500
v 1.3000 0.2000 0.0500
v 1.3000 0.5000 0.0500
v -1.3000 0.5000 0.0500
usemtl chrome
f 33 34 35 36
f 37 40 39 38
f 33 37 38 34
f 34 38 39 35
f 35 39 40 36
f 37 33 36 40
o Chassis
v -1.0000 0.3000 0.5000
v 1.0000 0.3000 0.5000
v 1.0000 0.6000 0.5000
v -1.0000 0.6000 0.5000
v -1.0000 0.3000 5.5000
v 1.0000 0.3000 5.5000
v 1.0000 0.6000 5.5000
v -1.0000 0.6000 5.5000
usemtl dark
f 41 42 43 44
f 45 48 47 46
f 41 45 46 42
f 42 46 47 43
f 43 47 48 44
f 45 41 44 48
o Trailer
v -1.4000 0.3000 2.6500
v 1.4000 0.3000 2.6500
v 1.4000 3.3000 2.6500
v -1.4000 3.3000 2.6500
v -1.4000 0.3000 7.3500
v 1.4000 0.3000 7.3500
v 1.4000 3.3000 7.3500
v -1.4000 3.3000 7.3500
usemtl navy
f 49 50 51 52
f 53 56 55 54
f 49 53 54 50
f 50 54 55 51
f 51 55 56 52
f 53 49 52 56
o TrailerTop
v -1.4500 3.2900 2.6000
v 1.4500 3.2900 2.6000
v 1.4500 3.5100 2.6000
v -1.4500 3.5100 2.6000
v -1.4500 3.2900 7.4000
v 1.4500 3.2900 7.4000
v 1.4500 3.5100 7.4000
v -1.4500 3.5100 7.4000
usemtl gold
f 57 58 59 60
f 61 64 63 62
f 57 61 62 58
f 58 62 63 59
f 59 63 64 60
f 61 57 60 64
o TrailerStripe
v -1.4300 1.6600 2.5800
v 1.4300 1.6600 2.5800
v 1.4300 1.9400 2.5800
v -1.4300 1.9400 2.5800
v -1.4300 1.6600 2.6600
v 1.4300 1.6600 2.6600
v 1.4300 1.9400 2.6600
v -1.4300 1.9400 2.6600
usemtl gold
f 65 66 67 68
f 69 72 71 70
f 65 69 70 66
f 66 70 71 67
f 67 71 72 68
f 69 65 68 72
o HeadlampL
v -0.9750 0.5100 -0.2000
v -0.5250 0.5100 -0.2000
v -0.5250 0.7900 -0.2000
v -0.9750 0.7900 -0.2000
v -0.9750 0.5100 -0.1200
v -0.5250 0.5100 -0.1200
v -0.5250 0.7900 -0.1200
v -0.9750 0.7900 -0.1200
usemtl lamp
f 73 74 75 76
f 77 80 79 78
f 73 77 78 74
f 74 78 79 75
f 75 79 80 76
f 77 73 76 80
o HeadlampR
v 0.5250 0.5100 -0.2000
v 0.9750 0.5100 -0.2000
v 0.9750 0.7900 -0.2000
v 0.5250 0.7900 -0.2000
v 0.5250 0.5100 -0.1200
v 0.9750 0.5100 -0.1200
v 0.9750 0.7900 -0.1200
v 0.5250 0.7900 -0.1200
usemtl lamp
f 81 82 83 84
f 85 88 87 86
f 81 85 86 82
f 82 86 87 83
f 83 87 88 84
f 85 81 84 88
o Wheel_-1.22_1.2
v -1.4450 0.0000 0.8500
v -0.9950 0.0000 0.8500
v -0.9950 0.7000 0.8500
v -1.4450 0.7000 0.8500
v -1.4450 0.0000 1.5500
v -0.9950 0.0000 1.5500
v -0.9950 0.7000 1.5500
v -1.4450 0.7000 1.5500
usemtl rubber
f 89 90 91 92
f 93 96 95 94
f 89 93 94 90
f 90 94 95 91
f 91 95 96 92
f 93 89 92 96
o Wheel_-1.22_4.1
v -1.4450 0.0000 3.7500
v -0.9950 0.0000 3.7500
v -0.9950 0.7000 3.7500
v -1.4450 0.7000 3.7500
v -1.4450 0.0000 4.4500
v -0.9950 0.0000 4.4500
v -0.9950 0.7000 4.4500
v -1.4450 0.7000 4.4500
usemtl rubber
f 97 98 99 100
f 101 104 103 102
f 97 101 102 98
f 98 102 103 99
f 99 103 104 100
f 101 97 100 104
o Wheel_-1.22_6.4
v -1.4450 0.0000 6.0500
v -0.9950 0.0000 6.0500
v -0.9950 0.7000 6.0500
v -1.4450 0.7000 6.0500
v -1.4450 0.0000 6.7500
v -0.9950 0.0000 6.7500
v -0.9950 0.7000 6.7500
v -1.4450 0.7000 6.7500
usemtl rubber
f 105 106 107 108
f 109 112 111 110
f 105 109 110 106
f 106 110 111 107
f 107 111 112 108
f 109 105 108 112
o Wheel_1.22_1.2
v 0.9950 0.0000 0.8500
v 1.4450 0.0000 0.8500
v 1.4450 0.7000 0.8500
v 0.9950 0.7000 0.8500
v 0.9950 0.0000 1.5500
v 1.4450 0.0000 1.5500
v 1.4450 0.7000 1.5500
v 0.9950 0.7000 1.5500
usemtl rubber
f 113 114 115 116
f 117 120 119 118
f 113 117 118 114
f 114 118 119 115
f 115 119 120 116
f 117 113 116 120
o Wheel_1.22_4.1
v 0.9950 0.0000 3.7500
v 1.4450 0.0000 3.7500
v 1.4450 0.7000 3.7500
v 0.9950 0.7000 3.7500
v 0.9950 0.0000 4.4500
v 1.4450 0.0000 4.4500
v 1.4450 0.7000 4.4500
v 0.9950 0.7000 4.4500
usemtl rubber
f 121 122 123 124
f 125 128 127 126
f 121 125 126 122
f 122 126 127 123
f 123 127 128 124
f 125 121 124 128
o Wheel_1.22_6.4
v 0.9950 0.0000 6.0500
v 1.4450 0.0000 6.0500
v 1.4450 0.7000 6.0500
v 0.9950 0.7000 6.0500
v 0.9950 0.0000 6.7500
v 1.4450 0.0000 6.7500
v 1.4450 0.7000 6.7500
v 0.9950 0.7000 6.7500
usemtl rubber
f 129 130 131 132
f 133 136 135 134
f 129 133 134 130
f 130 134 135 131
f 131 135 136 132
f 133 129 132 136
o TankL
v -1.2250 0.3500 1.3000
v -0.8750 0.3500 1.3000
v -0.8750 0.9500 1.3000
v -1.2250 0.9500 1.3000
v -1.2250 0.3500 2.7000
v -0.8750 0.3500 2.7000
v -0.8750 0.9500 2.7000
v -1.2250 0.9500 2.7000
usemtl chrome
f 137 138 139 140
f 141 144 143 142
f 137 141 142 138
f 138 142 143 139
f 139 143 144 140
f 141 137 140 144
o TankR
v 0.8750 0.3500 1.3000
v 1.2250 0.3500 1.3000
v 1.2250 0.9500 1.3000
v 0.8750 0.9500 1.3000
v 0.8750 0.3500 2.7000
v 1.2250 0.3500 2.7000
v 1.2250 0.9500 2.7000
v 0.8750 0.9500 2.7000
usemtl chrome
f 145 146 147 148
f 149 152 151 150
f 145 149 150 146
f 146 150 151 147
f 147 151 152 148
f 149 145 148 152
