# CARGO V2 WorldMap Marker Pack
# Project-original deterministic OBJ geometry
mtllib MOD_WorldMap_MarkerPack.mtl

o MissionMarker_Base
usemtl NavyMetal
v -0.45 0.00 -0.45
v  0.45 0.00 -0.45
v  0.45 0.00  0.45
v -0.45 0.00  0.45
v -0.45 0.18 -0.45
v  0.45 0.18 -0.45
v  0.45 0.18  0.45
v -0.45 0.18  0.45
f 1 2 3 4
f 5 8 7 6
f 1 5 6 2
f 2 6 7 3
f 3 7 8 4
f 4 8 5 1

o MissionMarker_GoldRing
usemtl GoldMetal
v -0.30 0.18 -0.30
v  0.30 0.18 -0.30
v  0.30 0.18  0.30
v -0.30 0.18  0.30
v -0.30 0.28 -0.30
v  0.30 0.28 -0.30
v  0.30 0.28  0.30
v -0.30 0.28  0.30
f 9 10 11 12
f 13 16 15 14
f 9 13 14 10
f 10 14 15 11
f 11 15 16 12
f 12 16 13 9

o MissionMarker_Beacon
usemtl BeaconGlow
v 0.00 0.95 0.00
v -0.16 0.28 -0.16
v  0.16 0.28 -0.16
v  0.16 0.28  0.16
v -0.16 0.28  0.16
f 17 18 19
f 17 19 20
f 17 20 21
f 17 21 18
f 18 21 20 19

o RoutePylon
usemtl Chrome
v -0.10 0.00 -0.10
v  0.10 0.00 -0.10
v  0.10 0.00  0.10
v -0.10 0.00  0.10
v -0.07 1.20 -0.07
v  0.07 1.20 -0.07
v  0.07 1.20  0.07
v -0.07 1.20  0.07
f 22 23 24 25
f 26 29 28 27
f 22 26 27 23
f 23 27 28 24
f 24 28 29 25
f 25 29 26 22

o RoutePylon_Cap
usemtl GoldMetal
v -0.18 1.18 -0.18
v  0.18 1.18 -0.18
v  0.18 1.18  0.18
v -0.18 1.18  0.18
v -0.18 1.34 -0.18
v  0.18 1.34 -0.18
v  0.18 1.34  0.18
v -0.18 1.34  0.18
f 30 31 32 33
f 34 37 36 35
f 30 34 35 31
f 31 35 36 32
f 32 36 37 33
f 33 37 34 30

o CityBeacon_Tower
usemtl NavyMetal
v -0.26 0.00 -0.26
v  0.26 0.00 -0.26
v  0.26 0.00  0.26
v -0.26 0.00  0.26
v -0.16 1.40 -0.16
v  0.16 1.40 -0.16
v  0.16 1.40  0.16
v -0.16 1.40  0.16
f 38 39 40 41
f 42 45 44 43
f 38 42 43 39
f 39 43 44 40
f 40 44 45 41
f 41 45 42 38

o CityBeacon_Crown
usemtl GoldMetal
v 0.00 1.90 0.00
v -0.34 1.40 -0.34
v  0.34 1.40 -0.34
v  0.34 1.40  0.34
v -0.34 1.40  0.34
f 46 47 48
f 46 48 49
f 46 49 50
f 46 50 47
f 47 50 49 48

o CityBeacon_Core
usemtl BeaconGlow
v -0.08 0.42 -0.27
v  0.08 0.42 -0.27
v  0.08 1.18 -0.27
v -0.08 1.18 -0.27
v -0.08 0.42 -0.19
v  0.08 0.42 -0.19
v  0.08 1.18 -0.19
v -0.08 1.18 -0.19
f 51 52 53 54
f 55 58 57 56
f 51 55 56 52
f 52 56 57 53
f 53 57 58 54
f 54 58 55 51
